<?xml version="1.0" encoding="UTF-8" standalone="no"?>
<svg
   id="Capa_1"
   data-name="Capa 1"
   viewBox="0 0 573.71002 662.15997"
   version="1.1"
   sodipodi:docname="S02_SVG.svg"
   width="573.71002"
   height="662.15997"
   inkscape:version="1.4.2 (ebf0e94, 2025-05-08)"
   xmlns:inkscape="http://www.inkscape.org/namespaces/inkscape"
   xmlns:sodipodi="http://sodipodi.sourceforge.net/DTD/sodipodi-0.dtd"
   xmlns="http://www.w3.org/2000/svg"
   xmlns:svg="http://www.w3.org/2000/svg">
  <sodipodi:namedview
     id="namedview28"
     pagecolor="#ffffff"
     bordercolor="#000000"
     borderopacity="0.25"
     inkscape:showpageshadow="2"
     inkscape:pageopacity="0.0"
     inkscape:pagecheckerboard="0"
     inkscape:deskcolor="#d1d1d1"
     inkscape:clip-to-page="false"
     inkscape:zoom="0.99875"
     inkscape:cx="286.85857"
     inkscape:cy="327.90989"
     inkscape:window-width="1920"
     inkscape:window-height="1008"
     inkscape:window-x="0"
     inkscape:window-y="0"
     inkscape:window-maximized="1"
     inkscape:current-layer="Capa_1" />
  <defs
     id="defs1">
    <style
       id="style1">
      .cls-1 {
        fill: #d447ff;
      }

      .cls-2 {
        fill: none;
        stroke: #e6332a;
        stroke-miterlimit: 10;
        stroke-width: 2px;
      }

      .cls-3 {
        fill: #c3b3c4;
      }

      .cls-4 {
        fill: #2e1a4a;
      }

      .cls-5 {
        fill: #f3f3f3;
      }

      .cls-6 {
        fill: #150a30;
      }
    </style>
  </defs>
  <polygon
     class="cls-4"
     points="407.61,76.68 400.01,72.27 392.33,76.68 120.8,233.46 113.16,237.87 113.16,569.09 120.81,573.5 392.34,730.03 400.01,734.43 407.6,730.03 679.13,573.5 686.86,569.04 686.78,560.26 686.86,246.7 686.86,237.87 679.21,233.46 "
     id="polygon1"
     transform="translate(-113.15,-72.27)" />
  <polygon
     class="cls-4"
     points="264.4,168.21 399.96,89.91 400.01,403.36 264.27,325.05 331.9,207.89 "
     id="polygon2"
     transform="translate(-113.15,-72.27)" />
  <polygon
     class="cls-5"
     points="671.55,324.95 535.69,403.33 400.02,481.6 400.01,481.6 400.01,403.36 535.78,325.03 603.61,285.89 468.05,207.79 468.04,207.78 399.96,89.91 671.56,246.7 671.55,246.71 "
     id="polygon3"
     transform="translate(-113.15,-72.27)" />
  <polygon
     class="cls-1"
     points="399.96,89.91 468.04,207.78 468.05,207.79 535.78,325.03 400.01,403.36 "
     id="polygon4"
     transform="translate(-113.15,-72.27)" />
  <polygon
     class="cls-3"
     points="468.05,207.79 603.61,285.89 535.78,325.03 "
     id="polygon5"
     transform="translate(-113.15,-72.27)" />
  <line
     class="cls-2"
     x1="15.299997"
     y1="174.42"
     x2="15.290003"
     y2="174.42"
     id="line5" />
  <polygon
     class="cls-3"
     points="400,481.6 264.33,403.33 128.44,324.94 128.44,246.7 128.45,246.69 196.35,285.87 264.27,325.05 400.01,403.36 400.01,481.6 "
     id="polygon6"
     transform="translate(-113.15,-72.27)" />
  <line
     class="cls-2"
     x1="15.290003"
     y1="174.42999"
     x2="15.290003"
     y2="174.42"
     id="line6" />
  <polygon
     class="cls-5"
     points="196.35,285.87 298.16,227.21 264.4,168.21 331.9,207.89 264.27,325.05 "
     id="polygon7"
     transform="translate(-113.15,-72.27)" />
  <polygon
     class="cls-6"
     points="128.45,246.69 264.4,168.21 298.16,227.21 264.27,325.05 "
     id="polygon8"
     transform="translate(-113.15,-72.27)" />
  <polygon
     class="cls-4"
     points="400,716.77 400.01,716.76 400.01,716.79 "
     id="polygon9"
     transform="translate(-113.15,-72.27)" />
  <polygon
     class="cls-3"
     points="370.05,560.58 348.11,627.04 323.88,585.15 400,526.01 400.01,526.01 400.01,574.56 "
     id="polygon10"
     transform="translate(-113.15,-72.27)" />
  <polygon
     class="cls-6"
     points="259.05,635.52 329.45,635.52 399.99,716.77 400,716.77 400.01,716.79 399.99,716.78 "
     id="polygon11"
     transform="translate(-113.15,-72.27)" />
  <polygon
     class="cls-3"
     points="294.37,534.05 264.34,403.36 306.26,446.33 399.88,481.56 400,481.6 363.3,517.45 "
     id="polygon12"
     transform="translate(-113.15,-72.27)" />
  <polygon
     class="cls-4"
     points="363.3,517.45 400,481.6 400.01,526.01 400,526.01 "
     id="polygon13"
     transform="translate(-113.15,-72.27)" />
  <polygon
     class="cls-6"
     points="162.11,560.26 259.04,635.52 128.44,560.26 "
     id="polygon14"
     transform="translate(-113.15,-72.27)" />
  <polygon
     class="cls-5"
     points="429.97,560.59 400.01,574.56 400.01,526.02 476.13,585.15 451.9,627.05 "
     id="polygon15"
     transform="translate(-113.15,-72.27)" />
  <polygon
     class="cls-6"
     points="470.57,635.52 540.97,635.52 400.01,716.79 "
     id="polygon16"
     transform="translate(-113.15,-72.27)" />
  <polygon
     class="cls-1"
     points="400.01,716.79 400.01,574.56 429.97,560.59 451.9,627.05 476.13,585.15 400.01,526.02 400.01,526.01 436.72,517.45 505.65,534.05 549.35,544.57 470.57,635.52 "
     id="polygon17"
     transform="translate(-113.15,-72.27)" />
  <polygon
     class="cls-6"
     points="637.9,560.26 671.56,560.26 540.97,635.52 "
     id="polygon18"
     transform="translate(-113.15,-72.27)" />
  <line
     class="cls-2"
     x1="234.95999"
     y1="554.76996"
     x2="234.74002"
     y2="555.44"
     id="line18" />
  <path
     class="cls-6"
     d="m 146.25,413.07 34.97,48.71 -30.03,-130.69 -0.02,-0.03 -135.89,-78.39 v 235.32 l 130.96,-74.92 z"
     id="path18" />
  <polygon
     class="cls-5"
     points="128.44,560.26 259.4,485.34 162.11,560.26 "
     id="polygon19"
     transform="translate(-113.15,-72.27)" />
  <polygon
     class="cls-3"
     points="162.11,560.26 259.4,485.34 294.37,534.05 250.66,544.57 301.13,602.83 329.45,635.52 259.04,635.52 "
     id="polygon20"
     transform="translate(-113.15,-72.27)" />
  <polygon
     class="cls-5"
     points="436.72,517.45 400.01,526.01 400,481.6 400.02,481.6 493.76,446.33 535.68,403.36 505.65,534.05 "
     id="polygon21"
     transform="translate(-113.15,-72.27)" />
  <path
     class="cls-6"
     d="m 558.41,487.99 -0.02,-235.3 -135.85,78.38 -0.02,0.03 -30.03,130.69 34.97,-48.71 130.95,74.92 z"
     id="path21" />
  <polygon
     class="cls-5"
     points="540.62,485.34 671.56,560.26 637.9,560.26 "
     id="polygon22"
     transform="translate(-113.15,-72.27)" />
  <polygon
     class="cls-3"
     points="470.57,635.52 549.35,544.57 505.65,534.05 540.62,485.34 637.9,560.26 540.97,635.52 "
     id="polygon23"
     transform="translate(-113.15,-72.27)" />
  <path
     class="cls-4"
     d="M 573.7,165.6 566.05,161.19 294.45,4.41 286.85,0 279.17,4.41 7.64,161.19 0,165.6 v 331.22 l 7.65,4.41 271.53,156.53 7.67,4.4 7.59,-4.4 271.53,-156.53 7.73,-4.46 -0.08,-8.78 0.08,-313.56 z m -15.29,322.39 -130.59,75.26 -10.6,6.11 -130.31,75.1 -0.03,0.02 h -0.02 c 0,0 -0.01,0.02 -0.01,0.02 h -0.01 c 0,0 -0.03,0.02 -0.03,0.02 L 52.5,509.44 15.31,487.99 H 15.29 V 174.43 h 0.01 c 0,0 29.15,-16.84 29.15,-16.84 L 233.61,48.37 286.81,17.65 v 0 c 0,0 271.59,156.78 271.59,156.78 v 313.56 z"
     id="path23" />
  <polygon
     class="cls-4"
     points="400,716.77 399.99,716.77 329.45,635.52 301.13,602.83 250.66,544.57 294.37,534.05 363.3,517.45 400,526.01 323.88,585.15 348.11,627.04 370.05,560.58 400.01,574.56 400.01,716.76 "
     id="polygon24"
     transform="translate(-113.15,-72.27)" />
  <polygon
     class="cls-3"
     points="264.27,325.05 309.41,246.86 331.9,207.89 298.16,227.21 "
     id="polygon25"
     transform="translate(-113.15,-72.27)" />
  <polygon
     class="cls-4"
     points="264.27,325.05 298.16,227.21 196.35,285.87 "
     id="polygon26"
     transform="translate(-113.15,-72.27)" />
  <polygon
     class="cls-6"
     points="400.02,481.59 264.36,403.34 304.69,458.06 "
     id="polygon27"
     transform="translate(-113.15,-72.27)" />
  <polygon
     class="cls-4"
     points="400.02,481.59 535.67,403.34 495.21,458.06 "
     id="polygon28"
     transform="translate(-113.15,-72.27)" />
</svg>
